<svg id="Capa_1" data-name="Capa 1" xmlns="http://www.w3.org/2000/svg" xmlns:xlink="http://www.w3.org/1999/xlink" viewBox="0 0 500 219.29"><defs><style>.cls-1{fill:url(#Degradado_sin_nombre_20);}.cls-2{fill:url(#Degradado_sin_nombre_23);}.cls-3{fill:url(#Degradado_sin_nombre_60);}.cls-4{fill:url(#Degradado_sin_nombre_60-2);}.cls-5{fill:url(#Degradado_sin_nombre_60-3);}.cls-6{fill:url(#Degradado_sin_nombre_60-8);}.cls-7{fill:url(#Degradado_sin_nombre_60-10);}.cls-8{fill:url(#Degradado_sin_nombre_60-12);}.cls-9{fill:url(#Degradado_sin_nombre_60-14);}.cls-10{fill:#6b6b6b;}.cls-11{fill:url(#Degradado_sin_nombre_20-3);}.cls-12{fill:url(#Degradado_sin_nombre_20-10);}</style><linearGradient id="Degradado_sin_nombre_20" x1="-7.59" y1="202.05" x2="681.29" y2="202.05" gradientUnits="userSpaceOnUse"><stop offset="0" stop-color="#7d7d7d"/><stop offset="0.02" stop-color="#7d7d7d"/><stop offset="1" stop-color="#585858"/></linearGradient><linearGradient id="Degradado_sin_nombre_23" x1="27.99" y1="389.39" x2="30.04" y2="389.39" gradientTransform="matrix(0, -91.01, -91.01, 0, 35686.06, 2772.75)" gradientUnits="userSpaceOnUse"><stop offset="0" stop-color="#0b268a"/><stop offset="0.01" stop-color="#0b2a8c"/><stop offset="0.16" stop-color="#0f4ea2"/><stop offset="0.3" stop-color="#126bb3"/><stop offset="0.45" stop-color="#137fbf"/><stop offset="0.59" stop-color="#158bc7"/><stop offset="0.73" stop-color="#158fc9"/><stop offset="1" stop-color="#158fc9"/></linearGradient><linearGradient id="Degradado_sin_nombre_60" x1="-32.48" y1="34.33" x2="786.85" y2="34.33" gradientUnits="userSpaceOnUse"><stop offset="0" stop-color="#158fc9"/><stop offset="0.27" stop-color="#158fc9"/><stop offset="0.41" stop-color="#158bc7"/><stop offset="0.55" stop-color="#137fbf"/><stop offset="0.7" stop-color="#126bb3"/><stop offset="0.84" stop-color="#0f4ea2"/><stop offset="0.99" stop-color="#0b2a8c"/><stop offset="1" stop-color="#0b268a"/></linearGradient><linearGradient id="Degradado_sin_nombre_60-2" x1="-32.48" y1="85.48" x2="786.85" y2="85.48" xlink:href="#Degradado_sin_nombre_60"/><linearGradient id="Degradado_sin_nombre_60-3" x1="-32.48" y1="159.15" x2="786.85" y2="159.15" xlink:href="#Degradado_sin_nombre_60"/><linearGradient id="Degradado_sin_nombre_60-8" x1="-32.48" y1="159.15" x2="786.85" y2="159.15" gradientTransform="translate(466.63 -150.69) rotate(89.71)" xlink:href="#Degradado_sin_nombre_60"/><linearGradient id="Degradado_sin_nombre_60-10" x1="-32.48" y1="127.24" x2="786.85" y2="127.24" xlink:href="#Degradado_sin_nombre_60"/><linearGradient id="Degradado_sin_nombre_60-12" x1="-32.48" y1="159.15" x2="786.85" y2="159.15" xlink:href="#Degradado_sin_nombre_60"/><linearGradient id="Degradado_sin_nombre_60-14" x1="-32.48" y1="159.19" x2="786.85" y2="159.19" xlink:href="#Degradado_sin_nombre_60"/><linearGradient id="Degradado_sin_nombre_20-3" x1="151.72" y1="202.36" x2="385.17" y2="202.36" xlink:href="#Degradado_sin_nombre_20"/><linearGradient id="Degradado_sin_nombre_20-10" x1="151.72" y1="202.41" x2="385.17" y2="202.41" xlink:href="#Degradado_sin_nombre_20"/></defs><rect class="cls-1" x="8.94" y="201.03" width="140.03" height="2.05"/><rect class="cls-1" x="348.99" y="201.03" width="140.01" height="2.05"/><rect class="cls-2" x="242.24" y="80.52" width="9.89" height="9.89" rx="4.94"/><polygon class="cls-3" points="175.48 23.81 175.48 44.84 189.36 38.75 189.32 23.81 175.48 23.81"/><path class="cls-4" d="M243.13,54.6c0,.11,0,6.76,0,6.76,0,.16,0,.34,0,.51V63c-.27-.14-.45-.22-.62-.32-1.17-.7-2.36-1.38-3.51-2.12-.44-.28-.72-.17-1.16,0a2.56,2.56,0,0,0-1.71,3.15,1.42,1.42,0,0,1,0,.46c-.08.47.13.72.54,1,2,1.11,3.9,2.26,5.87,3.36a1,1,0,0,1,.6,1c0,1.5,0,3,0,4.49a5.84,5.84,0,0,1-.07.61l-5.46-2.2v5.33c-1.6-.92-3.08-1.79-4.58-2.63a.9.9,0,0,1-.53-1c.06-2.1,0-4.21.15-6.31a2.12,2.12,0,0,0-1.33-2.35c-1.42-.73-1.37-.78-2.68.22a1.64,1.64,0,0,0-.74,1.51c.06,1.49,0,3,0,4.56-.32-.15-.55-.25-.76-.37-1.53-.84-3.06-1.7-4.59-2.53-.82-.45-1.65-1.2-2.49-1.23s-1.7.67-2.56,1l-.14.07c-.41.11-.52.39-.51.8,0,.79,0,1.57,0,2.36a.84.84,0,0,0,.54.88c2.14,1.15,4.27,2.32,6.41,3.48.21.11.4.25.68.42l-2.86,1.63c-2.18,1.23-2.19,1.23-2.06,3.77a1.07,1.07,0,0,0,.48.72,16.42,16.42,0,0,0,2,.94.9.9,0,0,0,.72-.05c2.11-1.2,4.2-2.44,6.31-3.65a.9.9,0,0,1,.67-.14c1.57.86,3.12,1.75,4.77,2.68l-5,3.1,5.16,3c-1.5.9-2.95,1.73-4.36,2.61a.89.89,0,0,1-1.09,0c-1.74-1.07-3.51-2.11-5.26-3.18-.85-.51-1.66-1-2.64-.19a13.5,13.5,0,0,1-1.44.83.89.89,0,0,0-.34.59c-.19,2.74-.18,2.74,2.31,3.91l.61.29,2.18,1c-1.87,1.07-3.62,2.05-5.35,3.05-.8.46-1.92.79-2.31,1.49s-.1,1.88-.14,2.84a.67.67,0,0,0,.52.78c.74.27,1.47.56,2.18.88a1.24,1.24,0,0,0,1.27-.07c2.11-1.22,4.24-2.39,6.36-3.57.21-.12.42-.22.72-.37,0,1.67,0,3.19,0,4.71a1.29,1.29,0,0,0,.63,1.26c.44.29.84.65,1.28,1,.59-.41,1.12-.84,1.71-1.19a1.17,1.17,0,0,0,.6-1.18c0-2.25,0-4.51,0-6.77a1.13,1.13,0,0,1,.72-1.22c1.31-.61,2.58-1.31,3.87-2l1-.46v5.1l5.47-2.41s0,3.72,0,5.51c0,.19-.3.44-.51.56-1.81,1.07-3.61,2.15-5.47,3.15a1.85,1.85,0,0,0-1.05,1.75,2.71,2.71,0,0,0,1.69,3,1.17,1.17,0,0,0,1.35,0c1.28-.81,2.59-1.56,4-2.42,0,.42,0,4.83,0,4.83s0,3.27,0,3.38l0,.18a2.68,2.68,0,0,0,2.57,2.18l.09,0V92a6.55,6.55,0,0,1,0-12.93V52.29h0a2.72,2.72,0,0,0-2.68,2.31"/><polygon class="cls-5" points="48.05 139.3 48.05 178.99 81.05 178.99 81.05 168.9 61.2 168.9 61.2 163.68 77.99 163.68 77.99 154.04 61.2 154.04 61.2 149.39 80.31 149.39 80.31 139.3 48.05 139.3"/><path class="cls-5" d="M99.61,149.62h4.88c3.69,0,5.45,1.76,5.45,4.65s-1.76,4.65-5.45,4.65H99.61ZM86.23,139.3V179H99.61V169h3.63L110,179h14.29l-8.34-12.25a13.28,13.28,0,0,0,7.49-12.47c0-9.19-7-15-18.09-15Z"/><polygon class="cls-5" points="157.75 139.3 148.05 162.49 138.58 139.3 124.18 139.3 140.97 178.99 154.12 178.99 170.9 139.3 157.75 139.3"/><polygon class="cls-5" points="232.86 139.3 220.28 160.45 207.35 139.3 196.35 139.3 196.35 178.99 208.54 178.99 208.54 161.53 217.16 175.41 223.06 175.41 231.67 160.9 231.79 178.99 243.97 178.99 243.87 139.3 232.86 139.3"/><path class="cls-5" d="M272,152.45l3.85,10h-7.71Zm-6.46-13.15L248.22,179h13.6l2.66-6.92h15.09l2.66,6.92h13.84L278.72,139.3Z"/><rect class="cls-6" x="289.16" y="152.36" width="39.75" height="13.58" transform="matrix(0.01, -1, 1, 0.01, 148.34, 467.38)"/><polygon class="cls-5" points="409.4 139.3 409.4 178.99 442.39 178.99 442.39 168.9 422.55 168.9 422.55 163.68 439.33 163.68 439.33 154.04 422.55 154.04 422.55 149.39 441.66 149.39 441.66 139.3 409.4 139.3"/><polygon class="cls-7" points="175.47 178.99 175.48 81.56 189.36 75.42 189.36 179.06 175.47 178.99"/><path class="cls-5" d="M463,149.62h4.88c3.69,0,5.45,1.76,5.45,4.65s-1.76,4.65-5.45,4.65H463ZM449.63,139.3V179H463V169h3.63l6.75,10h14.3l-8.35-12.25a13.28,13.28,0,0,0,7.49-12.47c0-9.19-7-15-18.09-15Z"/><path class="cls-8" d="M367.81,139.3v10.46H379s7.82-6.78,12.55,2.22h-6.79s-3.69,2.36,0,4.87h6.79s-3.84,9.74-12.4,1.91H367.81V179h13.38v-9.75h5.73c11.06,0,18.09-5.79,18.09-15s-7-15-18.09-15Z"/><polygon class="cls-5" points="348.29 139.3 348.29 157.34 333.2 139.3 322.21 139.3 322.21 178.99 335.25 178.99 335.25 160.96 350.33 178.99 361.33 178.99 361.33 139.3 348.29 139.3"/><path class="cls-9" d="M22.12,151.1c0-1.37,1.25-2.5,5.16-2.5a24.51,24.51,0,0,1,11,3l4-9.7a30.29,30.29,0,0,0-12.7-3.34s-16-1-19.82,8.71a12.06,12.06,0,0,0-.93,4.56c0,14.79,21.94,10.77,21.94,15.76,0,1.36-1.36,2.15-5.15,2.15a27.2,27.2,0,0,1-13.1-3.63l-4.31,9.75c4,2.44,10.65,4.09,17.29,4.09,12.3,0,18.48-6.13,18.48-13.39C44.06,151.89,22.12,155.86,22.12,151.1Z"/><polygon class="cls-10" points="283.38 27.07 300.85 34.93 314.5 29.1 487.68 107.01 487.68 91.6 314.63 13.73 283.38 27.07"/><path class="cls-10" d="M249.55,52.36a9.57,9.57,0,0,0-1.62.2V79a6.55,6.55,0,0,1,0,13.07v26.63a10,10,0,0,0,4.54-1,9.53,9.53,0,0,0,4.5-4.58,24.65,24.65,0,0,0,2.17-7.79,20.23,20.23,0,0,0,0-5.55,17.18,17.18,0,0,0-1-3.67.45.45,0,0,1,0-.34c.41-.43.85-.83,1.27-1.24,0,0,0,0,.05,0l.18.24a29.35,29.35,0,0,1,3.92,7.76,31,31,0,0,1,1.54,10.93.66.66,0,0,0,.27.65.62.62,0,0,0,.7,0,33.48,33.48,0,0,0,10.76-10.2,9.91,9.91,0,0,0-.46-12.21,26.56,26.56,0,0,0-5.59-5.31A20.4,20.4,0,0,0,267,84.18,17.3,17.3,0,0,0,262.77,83c-.1,0-.26-.08-.28-.15-.16-.57-.29-1.15-.44-1.72,0,0,0,0,.05,0l.65-.06a29.62,29.62,0,0,1,10.35,1,31.29,31.29,0,0,1,8.25,3.67.62.62,0,0,0,.69.07.64.64,0,0,0,.3-.64,33,33,0,0,0-2.4-12A18.18,18.18,0,0,0,277.88,69a9.45,9.45,0,0,0-8-4.13,19.52,19.52,0,0,0-6.32,1.17,24.07,24.07,0,0,0-6.23,3,16.27,16.27,0,0,0-3.53,3.35c-.07.08-.2.2-.27.18-.58-.15-1.16-.32-1.74-.49l0-.09A30.14,30.14,0,0,1,255,66.6a29,29,0,0,1,6.53-6.47c1.24-.88,2.59-1.63,3.89-2.43.21-.13.4-.27.4-.54a.63.63,0,0,0-.41-.6c-.83-.42-1.65-.87-2.49-1.26a31.74,31.74,0,0,0-9.44-2.71,28.53,28.53,0,0,0-3.33-.25l-.59,0"/><path class="cls-10" d="M249.1,22h0l-.19-.08-.12-.05h0L8.94,131.75v6.87c4.47-3.93,11.52-6.51,19.22-6.51a47.65,47.65,0,0,1,11,1.11l.22,0,209.58-96,208.4,95h13.84c6.62,0,13.49,2.92,16.52,6.4v-7.91Z"/><path class="cls-11" d="M171.84,195.18v14.36h-2v-6.4h-8.25v6.4H159.5V195.18h2.05v6.17h8.25v-6.17Z"/><path class="cls-11" d="M188.63,207.75v1.79H178.21V195.18h10.13V197h-8.08v4.41h7.2v1.74h-7.2v4.63Z"/><path class="cls-11" d="M203.15,206h-7.63L194,209.54h-2.12l6.5-14.36h2l6.52,14.36h-2.15Zm-.72-1.64-3.09-7-3.1,7Z"/><path class="cls-11" d="M213.2,197h-4.92v-1.79h11.87V197h-4.92v12.57h-2Z"/><path class="cls-11" d="M224.45,195.18h2.05v14.36h-2.05Z"/><path class="cls-11" d="M245.2,195.18v14.36h-1.68l-8.61-10.71v10.71h-2V195.18h1.68l8.61,10.71V195.18Z"/><path class="cls-11" d="M261.51,202.28h2v5.59a8.5,8.5,0,0,1-5.43,1.83c-4.41,0-7.65-3.1-7.65-7.34s3.24-7.34,7.69-7.34a7.2,7.2,0,0,1,5.51,2.21l-1.27,1.28a5.68,5.68,0,0,0-4.16-1.66,5.51,5.51,0,1,0,0,11,6,6,0,0,0,3.36-.92Z"/><path class="cls-12" d="M287.52,209.76l-1.91-1.91a6.7,6.7,0,0,1-4.79,1.85c-2.91,0-5-1.54-5-3.73,0-1.77,1-3,3.49-4.41-1.29-1.29-1.72-2.21-1.72-3.28,0-1.93,1.51-3.22,3.87-3.22,2.17,0,3.57,1.13,3.57,3,0,1.45-.86,2.5-3.06,3.75l3.55,3.52a8.83,8.83,0,0,0,.88-2.6l1.58.51a9.59,9.59,0,0,1-1.25,3.28l1.93,1.93Zm-3.08-3-4.07-4.06c-2,1.12-2.65,2-2.65,3.11,0,1.38,1.29,2.3,3.22,2.3A4.87,4.87,0,0,0,284.44,206.71Zm-5.06-8.47c0,.74.29,1.27,1.46,2.46,1.88-1.07,2.5-1.72,2.5-2.62s-.68-1.58-1.91-1.58S279.38,197.21,279.38,198.24Z"/><path class="cls-11" d="M309.86,206h-7.63l-1.57,3.59h-2.12l6.5-14.36h2l6.52,14.36h-2.15Zm-.72-1.64-3.09-7-3.1,7Z"/><path class="cls-11" d="M317.79,195.18h2v14.36h-2Z"/><path class="cls-11" d="M335.79,209.54l-3.1-4.41c-.28,0-.59,0-.9,0h-3.55v4.37h-2.05V195.18h5.6c3.73,0,6,1.89,6,5a4.53,4.53,0,0,1-3.16,4.53l3.4,4.82Zm-.06-9.35c0-2.05-1.38-3.22-4-3.22h-3.49v6.46h3.49C334.35,203.43,335.73,202.24,335.73,200.19Z"/></svg>